<?xml version="1.0" encoding="utf-8"?>
<!-- Generator: Adobe Illustrator 24.2.1, SVG Export Plug-In . SVG Version: 6.00 Build 0)  -->
<svg version="1.1" id="Lager_1" xmlns="http://www.w3.org/2000/svg" xmlns:xlink="http://www.w3.org/1999/xlink" x="0px" y="0px"
	 viewBox="0 0 591.14 484.74" style="enable-background:new 0 0 591.14 484.74;" xml:space="preserve">
<style type="text/css">
	.st0{fill:#4C86A0;}
	.st1{fill:#1D1D1B;}
	.st2{fill:#FFFFFF;}
</style>
<path class="st0" d="M466.36,197.88c-6.36-24.72-18.19-48.43-35.69-69.29c-7.31-8.71-15.3-16.5-23.8-23.43l-0.44,6.99l-0.55-7.81
	c-2.96-2.38-5.98-4.64-9.06-6.8l-0.92,14.62l-1.12-16c-2.65-1.81-5.35-3.54-8.08-5.19l-1.34,21.19l-1.6-22.97
	c-2.38-1.38-4.79-2.68-7.23-3.94l-1.7,26.91l-2-28.73c-2.16-1.05-4.33-2.07-6.52-3.02l-2.01,31.76l-2.34-33.59
	c-1.96-0.8-3.94-1.54-5.92-2.26l-2.26,35.85l-2.62-37.58c-1.8-0.6-3.61-1.16-5.43-1.69l-2.48,39.27l-2.84-40.74
	c-1.68-0.44-3.35-0.89-5.03-1.28l-2.65,42.02l-3.02-43.21c-1.57-0.31-3.15-0.59-4.73-0.86l-2.78,44.06l-3.14-45
	c-1.5-0.2-3.01-0.34-4.52-0.5l-2.87,45.5l-3.21-46.06c-1.46-0.11-2.93-0.21-4.39-0.28l-2.93,46.34l-3.25-46.51
	c-1.45-0.02-2.9-0.06-4.35-0.05l-2.94,46.56l-3.24-46.36c-1.46,0.07-2.92,0.16-4.39,0.26l-2.91,46.1l-3.18-45.6
	c-1.51,0.16-3,0.38-4.51,0.58l-2.84,45.02l-3.08-44.15c-1.57,0.26-3.15,0.53-4.72,0.84l-2.74,43.31l-2.94-42.09
	c-1.67,0.38-3.35,0.76-5.01,1.19l-2.58,40.9l-2.75-39.4c-1.81,0.53-3.61,1.1-5.4,1.69l-2.38,37.71l-2.52-36.07
	c-1.98,0.71-3.93,1.5-5.88,2.29l-2.13,33.78l-2.23-31.94c-2.17,0.94-4.33,1.91-6.47,2.95l-1.83,29L215,85.06
	c-2.41,1.24-4.8,2.54-7.18,3.91l-1.46,23.19l-1.5-21.49c-2.7,1.62-5.37,3.31-8,5.09l-1.03,16.4l-1.04-14.93
	c-3.04,2.12-6.03,4.37-8.97,6.71l-0.52,8.23l-0.52-7.4c-0.87,0.7-1.76,1.37-2.63,2.09c-29.28,24.57-48.54,56.63-57.38,91.03H466.36z
	"/>
<path class="st0" d="M126.29,292.03c6.63,22.72,17.96,44.46,34.15,63.76c7.31,8.71,15.3,16.5,23.8,23.43l0.44-6.99l0.55,7.81
	c2.96,2.38,5.98,4.64,9.06,6.8l0.92-14.62l1.12,16c2.65,1.81,5.35,3.54,8.08,5.19l1.33-21.19l1.61,22.97
	c2.38,1.38,4.79,2.68,7.23,3.94l1.7-26.91l2,28.73c2.16,1.05,4.33,2.07,6.52,3.02l2.01-31.76l2.34,33.59
	c1.96,0.8,3.94,1.54,5.92,2.26l2.26-35.85l2.62,37.58c1.8,0.6,3.61,1.16,5.43,1.69l2.48-39.27l2.84,40.74
	c1.68,0.44,3.35,0.89,5.03,1.28l2.65-42.02l3.02,43.21c1.57,0.31,3.15,0.59,4.73,0.86l2.78-44.06l3.14,45
	c1.5,0.2,3.01,0.34,4.52,0.5l2.87-45.5l3.21,46.06c1.46,0.11,2.93,0.21,4.39,0.28l2.93-46.34l3.24,46.51
	c1.45,0.02,2.9,0.06,4.35,0.05l2.94-46.56l3.24,46.36c1.46-0.07,2.92-0.16,4.39-0.26l2.91-46.1l3.18,45.6
	c1.51-0.16,3-0.38,4.51-0.58l2.84-45.02l3.08,44.15c1.57-0.26,3.15-0.53,4.71-0.84l2.74-43.31l2.94,42.09
	c1.67-0.38,3.35-0.76,5.01-1.19l2.58-40.9l2.75,39.4c1.81-0.53,3.61-1.1,5.4-1.69l2.38-37.71l2.52,36.07
	c1.98-0.71,3.93-1.5,5.88-2.29l2.13-33.78l2.23,31.94c2.17-0.94,4.33-1.91,6.47-2.95l1.83-29l1.89,27.1
	c2.42-1.24,4.81-2.54,7.18-3.91l1.47-23.19l1.5,21.49c2.69-1.62,5.37-3.31,8-5.09l1.03-16.4l1.04,14.93
	c3.04-2.12,6.03-4.37,8.97-6.71l0.52-8.23l0.52,7.4c0.87-0.7,1.76-1.37,2.63-2.09c27.71-23.25,46.46-53.2,55.9-85.5H126.29z"/>
<path class="st1" d="M475.87,308.47c-22.83,62.08-77.15,110.69-146.98,122.99c-93.05,16.39-182.25-37.2-213.59-122.95l-68.99-15.6
	l0-0.29l0.02-95.77l67.07-15.21C135.01,117,190.44,65.93,262.27,53.28c95.05-16.74,186.06,39.53,215.52,128.52l67.04,15.14
	L544.82,293L475.87,308.47z M295.61,64.2c82.67,0.02,152.17,56.33,172.27,132.68h4.13C448.57,105.58,358.37,46.32,263.98,62.94
	c-72.61,12.79-127.54,66.93-144.86,133.94h4.16C143.39,120.51,212.92,64.18,295.61,64.2z M466.41,293
	c-21.81,73.76-90.06,127.58-170.9,127.57c-80.81-0.01-149.03-53.83-170.83-127.57h-4.16c25.44,88.39,114.01,145.14,206.63,128.82
	C397.9,409.37,451.86,357.64,470.6,293H466.41z M465.5,196.92C445.46,121.82,376.98,66.5,295.57,66.5s-149.89,55.32-169.93,130.42
	H465.5z M127.09,292.95c21.73,72.47,88.93,125.29,168.48,125.29s146.75-52.82,168.48-125.29H127.09z"/>
<g>
	<path class="st1" d="M216.04,126.28c0.28,0.42,0.65,0.77,1.1,1.03c0.46,0.26,1.02,0.4,1.69,0.4c0.68,0,1.35-0.15,1.98-0.42
		c0.63-0.28,1.19-0.68,1.67-1.18c0.48-0.51,0.85-1.11,1.14-1.82c0.28-0.71,0.42-1.49,0.42-2.34c0-0.62-0.1-1.19-0.3-1.69
		c-0.2-0.51-0.47-0.93-0.8-1.26c-0.34-0.33-0.72-0.59-1.15-0.77c-0.44-0.18-0.9-0.27-1.38-0.27c-0.81,0-1.53,0.14-2.17,0.42
		c-0.63,0.28-1.18,0.67-1.62,1.16c-0.45,0.48-0.79,1.05-1.02,1.69c-0.23,0.65-0.35,1.34-0.35,2.06c0,0.53,0.07,1.05,0.19,1.58
		C215.56,125.38,215.76,125.86,216.04,126.28z"/>
	<path class="st1" d="M206.14,126.28c0.28,0.42,0.64,0.77,1.09,1.03c0.46,0.26,1.03,0.4,1.72,0.4c0.68,0,1.35-0.15,1.98-0.42
		c0.63-0.28,1.19-0.68,1.67-1.18c0.48-0.51,0.85-1.11,1.14-1.82c0.28-0.71,0.42-1.49,0.42-2.34c0-0.62-0.1-1.19-0.3-1.69
		c-0.2-0.51-0.47-0.93-0.8-1.26c-0.34-0.33-0.72-0.59-1.15-0.77c-0.44-0.18-0.9-0.27-1.38-0.27c-0.81,0-1.53,0.14-2.17,0.42
		c-0.63,0.28-1.18,0.67-1.62,1.16c-0.45,0.48-0.79,1.05-1.02,1.69c-0.23,0.65-0.35,1.34-0.35,2.06c0,0.53,0.07,1.05,0.19,1.58
		C205.67,125.38,205.87,125.86,206.14,126.28z"/>
	<path class="st1" d="M232.39,143.52c-0.69-1.81-1.55-3.5-2.61-5.09c-1.05-1.59-2.29-2.96-3.72-4.13c-1.42-1.16-3.04-2.08-4.85-2.76
		c-1.81-0.68-3.83-1.02-6.05-1.02c-1.34,0-2.51,0.13-3.52,0.38c-1.01,0.25-1.88,0.58-2.63,0.99c-0.74,0.4-1.36,0.87-1.88,1.39
		c-0.52,0.53-0.94,1.08-1.26,1.64c-0.06-0.06-0.13-0.13-0.19-0.21c-0.07-0.08-0.2-0.16-0.36-0.24c-0.17-0.08-0.4-0.15-0.69-0.21
		c-0.28-0.06-0.65-0.08-1.12-0.06c-1.32,0.04-2.53,0.46-3.64,1.26c-1.11,0.8-2.12,1.85-3.03,3.13c-0.91,1.28-1.71,2.75-2.41,4.4
		c-0.69,1.65-1.28,3.35-1.76,5.11c-0.48,1.76-0.83,3.5-1.08,5.23c-0.24,1.73-0.36,3.31-0.36,4.75c0,2.37,0.26,4.56,0.77,6.57
		c0.52,2.01,1.24,3.84,2.16,5.49c0.92,1.65,2.01,3.1,3.27,4.36c1.26,1.26,2.65,2.33,4.14,3.19c1.49,0.86,3.08,1.51,4.74,1.94
		c1.65,0.44,3.35,0.65,5.06,0.65c2.55,0,4.89-0.33,7.01-1c2.12-0.67,4.03-1.59,5.75-2.74c1.71-1.16,3.2-2.55,4.48-4.14
		c1.29-1.6,2.36-3.33,3.22-5.2c0.85-1.87,1.5-3.84,1.94-5.9c0.44-2.06,0.65-4.14,0.65-6.24c0-1.94-0.17-3.9-0.5-5.86
		C233.59,147.22,233.07,145.33,232.39,143.52z M227.66,159.78c-0.65,2.26-1.57,4.25-2.76,5.99c-1.2,1.74-2.63,3.13-4.29,4.19
		c-1.67,1.05-3.53,1.57-5.59,1.57c-1.5,0-2.95-0.28-4.35-0.83c-1.41-0.56-2.66-1.46-3.75-2.71c-1.09-1.26-1.96-2.89-2.62-4.91
		c-0.66-2.02-0.99-4.5-0.99-7.43c0-5.15,0.97-9.35,2.91-12.58c0.16,0.4,0.32,0.74,0.47,1.02c0.15,0.27,0.3,0.41,0.44,0.41
		c0.61,0,1.01-0.17,1.18-0.52c0.19-0.34,0.28-0.75,0.28-1.22c0-0.28-0.02-0.56-0.05-0.85c-0.03-0.28-0.05-0.56-0.05-0.82
		c0-0.54,0.08-1.18,0.24-1.91c0.17-0.73,0.5-1.42,1.02-2.06c0.52-0.64,1.26-1.19,2.24-1.63c0.99-0.45,2.28-0.67,3.9-0.67
		c1.45,0,2.78,0.26,3.97,0.77c1.2,0.52,2.27,1.22,3.22,2.1c0.95,0.89,1.77,1.93,2.45,3.11c0.69,1.18,1.26,2.45,1.73,3.78
		c0.47,1.34,0.81,2.7,1.03,4.11c0.22,1.4,0.34,2.77,0.34,4.11C228.63,155.19,228.31,157.52,227.66,159.78z"/>
	<path class="st1" d="M399.45,156.71c-0.22-0.17-0.48-0.26-0.77-0.26c-0.49,0-0.88,0.1-1.18,0.29c-0.3,0.19-0.52,0.46-0.64,0.8
		c-0.87,2.23-1.88,3.96-3.04,5.2c-1.16,1.24-2.38,1.91-3.66,2.02c0.04-0.41,0.07-0.84,0.11-1.29c0.03-0.46,0.05-0.94,0.05-1.44
		c0-0.93-0.09-1.83-0.27-2.7c-0.19-0.87-0.46-1.65-0.82-2.35c-0.36-0.69-0.82-1.28-1.37-1.76c-0.54-0.47-1.18-0.79-1.9-0.95
		c-0.26-0.48-0.6-1.02-1.02-1.59c-0.42-0.58-0.92-1.12-1.51-1.63c-0.6-0.52-1.29-0.95-2.08-1.29c-0.79-0.34-1.67-0.52-2.67-0.52
		c-3.04,0-5.63,0.48-7.78,1.42c-2.16,0.95-3.92,2.2-5.3,3.76c-0.83,0.94-1.48,1.99-2.04,3.09c-0.01,0.03-0.04,0.04-0.05,0.06
		c-0.26,0.65-0.62,1.45-1.06,2.41c-0.44,0.97-0.95,1.96-1.51,3c-0.57,1.04-1.18,2.08-1.82,3.13c-0.65,1.04-1.3,1.97-1.96,2.79
		c-0.66,0.81-1.3,1.48-1.92,2c-0.63,0.52-1.2,0.77-1.73,0.77c-0.46,0-0.82-0.11-1.08-0.33c-0.25-0.22-0.44-0.53-0.56-0.91
		c-0.13-0.38-0.2-0.83-0.22-1.35s-0.03-1.06-0.03-1.65c0-2.04,0.02-3.97,0.06-5.77c0.04-1.81,0.06-3.28,0.06-4.42
		c0-0.81-0.26-1.48-0.77-2.03c-0.52-0.54-1.14-0.99-1.86-1.35c-0.73-0.35-1.49-0.63-2.29-0.85c-0.8-0.22-1.47-0.38-2.02-0.5
		c-1.21-0.28-2.22-0.55-3.02-0.81c-0.8-0.25-1.45-0.49-1.96-0.73c-0.5-0.23-0.88-0.46-1.12-0.68c-0.24-0.22-0.41-0.44-0.52-0.67
		c-0.1-0.22-0.15-0.44-0.15-0.67c0-0.22,0-0.45,0-0.69c0-0.22,0.01-0.48,0.03-0.77c0.02-0.29,0.03-0.76,0.03-1.41
		c0-0.67-0.07-1.28-0.22-1.85c-0.14-0.57-0.38-1.06-0.71-1.49c-0.34-0.42-0.79-0.75-1.38-0.99s-1.32-0.34-2.18-0.34
		c-0.71,0-1.37,0.21-1.99,0.63c-0.62,0.42-1.15,0.99-1.61,1.68c-0.45,0.7-0.81,1.48-1.06,2.35c-0.25,0.87-0.38,1.74-0.38,2.61
		c0,1.07,0.21,2.06,0.62,2.96c0.41,0.9,1.03,1.69,1.86,2.38c0.1,0.08,0.19,0.24,0.28,0.47s0.14,0.56,0.14,0.99
		c0,0.24-0.01,0.5-0.03,0.76s-0.07,0.56-0.15,0.89c-0.03,0.15-0.12,0.35-0.17,0.52c-0.07,0.19-0.19,0.43-0.4,0.82
		c-0.24,0.44-0.54,0.93-0.88,1.47c-0.34,0.55-0.71,1.12-1.1,1.72c-0.4,0.6-0.79,1.14-1.2,1.62c-0.41,0.48-0.79,0.89-1.16,1.2
		c-0.36,0.31-0.66,0.47-0.91,0.47c-0.17,0-0.28-0.07-0.36-0.2c-0.08-0.13-0.13-0.36-0.13-0.71c0-0.21,0.02-0.38,0.05-0.54
		c0.03-0.15,0.07-0.3,0.11-0.46c0.04-0.15,0.08-0.3,0.11-0.47c0.03-0.16,0.05-0.36,0.05-0.6c0-0.43-0.09-0.82-0.26-1.18
		s-0.4-0.68-0.69-0.94c-0.29-0.26-0.63-0.47-1.02-0.62c-0.38-0.15-0.8-0.23-1.24-0.23c-0.6,0-1.17,0.15-1.7,0.44
		c-0.52,0.29-0.98,0.68-1.36,1.16c-0.38,0.49-0.69,1.03-0.91,1.64c-0.22,0.61-0.33,1.22-0.33,1.85c0,0.58,0.1,1.16,0.29,1.71
		c0.19,0.56,0.5,1.08,0.92,1.56c0.11,0.12,0.18,0.28,0.23,0.47c0.05,0.19,0.07,0.38,0.07,0.56c0,0.26-0.08,0.54-0.24,0.85
		c-0.17,0.3-0.51,0.74-1.03,1.3c-0.36,0.37-0.73,0.65-1.11,0.84c-0.37,0.19-0.71,0.28-1.01,0.28c-0.69,0-1.27-0.2-1.75-0.61
		c-0.48-0.4-0.87-0.94-1.18-1.61c-0.31-0.66-0.56-1.42-0.74-2.24c-0.19-0.83-0.32-1.67-0.4-2.52c-0.08-0.85-0.13-1.67-0.15-2.45
		c-0.02-0.79-0.03-1.47-0.03-2.03c0.83-0.65,1.63-1.44,2.41-2.37c0.78-0.93,1.49-1.94,2.16-3.04c0.65-1.09,1.26-2.23,1.81-3.41
		c0.54-1.18,1.01-2.36,1.4-3.54c0.38-1.17,0.68-2.3,0.89-3.39c0.21-1.09,0.32-2.1,0.32-3c0-1.5-0.09-2.94-0.27-4.34
		c-0.19-1.4-0.51-2.63-0.99-3.7c-0.48-1.07-1.13-1.92-1.97-2.57c-0.84-0.65-1.9-0.97-3.2-0.97c-1.44,0-2.72,0.28-3.87,0.85
		c-1.14,0.57-2.15,1.34-3.03,2.32c-0.88,0.98-1.65,2.12-2.29,3.43c-0.64,1.3-1.2,2.7-1.65,4.2c-0.45,1.5-0.82,3.05-1.1,4.64
		c-0.28,1.6-0.5,3.17-0.67,4.7c-0.16,1.53-0.27,3.01-0.33,4.42c-0.05,1.14-0.06,2.12-0.07,3.08c0,0.01-0.01,0.01-0.01,0.01
		c-0.28,0.75-0.67,1.63-1.17,2.65c-0.5,1.03-1.08,2.08-1.77,3.19c-0.69,1.1-1.46,2.2-2.32,3.27c-0.86,1.08-1.81,2.06-2.84,2.91
		c-1.03,0.86-2.14,1.56-3.33,2.1c-1.2,0.54-2.46,0.8-3.79,0.8c-1.07,0-2-0.17-2.79-0.5c-0.79-0.34-1.46-0.79-2.02-1.35
		c-0.56-0.57-1.01-1.24-1.34-2c-0.33-0.77-0.56-1.57-0.68-2.43c2.26-0.24,4.2-0.73,5.81-1.49c1.61-0.75,2.92-1.61,3.93-2.61
		c1.01-0.99,1.75-2.02,2.22-3.09c0.46-1.07,0.69-2.06,0.69-2.97c0-0.93-0.19-1.81-0.56-2.65c-0.37-0.84-0.89-1.58-1.53-2.22
		c-0.65-0.63-1.42-1.15-2.29-1.53c-0.88-0.38-1.83-0.58-2.83-0.58c-1.74,0-3.35,0.24-4.84,0.71c-1.48,0.48-2.83,1.12-4.03,1.94
		c-1.2,0.82-2.26,1.79-3.18,2.92c-0.61,0.74-1.06,1.59-1.54,2.41c-0.16,0.17-0.33,0.32-0.41,0.55c-0.04,0.09-0.1,0.23-0.14,0.32
		c-0.06,0.12-0.16,0.22-0.22,0.34c-0.11,0.23-0.15,0.48-0.25,0.72c-0.16,0.35-0.26,0.62-0.45,1.02c-0.44,0.97-0.95,1.96-1.51,3
		c-0.57,1.04-1.18,2.08-1.82,3.13c-0.65,1.04-1.3,1.97-1.96,2.79c-0.66,0.81-1.3,1.48-1.92,2c-0.63,0.52-1.2,0.77-1.73,0.77
		c-0.46,0-0.82-0.11-1.08-0.33c-0.25-0.22-0.44-0.53-0.56-0.91c-0.13-0.38-0.2-0.83-0.22-1.35s-0.03-1.06-0.03-1.65
		c0-2.04,0.02-3.97,0.06-5.77c0.04-1.81,0.06-3.28,0.06-4.42c0-0.81-0.26-1.48-0.77-2.03c-0.52-0.54-1.14-0.99-1.86-1.35
		c-0.73-0.35-1.49-0.63-2.29-0.85c-0.8-0.22-1.47-0.38-2.02-0.5c-1.21-0.28-2.22-0.55-3.02-0.81c-0.8-0.25-1.45-0.49-1.96-0.73
		c-0.5-0.23-0.88-0.46-1.12-0.68c-0.24-0.22-0.41-0.44-0.52-0.67c-0.1-0.22-0.15-0.44-0.15-0.67c0-0.22,0-0.45,0-0.69
		c0-0.22,0.01-0.48,0.03-0.77c0.02-0.29,0.03-0.76,0.03-1.41c0-0.67-0.07-1.28-0.22-1.85c-0.14-0.57-0.38-1.06-0.71-1.49
		c-0.34-0.42-0.79-0.75-1.38-0.99c-0.59-0.23-1.32-0.34-2.18-0.34c-0.71,0-1.37,0.21-1.99,0.63c-0.62,0.42-1.15,0.99-1.61,1.68
		c-0.45,0.7-0.81,1.48-1.06,2.35c-0.25,0.87-0.38,1.74-0.38,2.61c0,1.07,0.21,2.06,0.62,2.96c0.41,0.9,1.03,1.69,1.86,2.38
		c0.1,0.08,0.19,0.24,0.28,0.47c0.09,0.23,0.14,0.56,0.14,0.99c0,0.24-0.01,0.5-0.03,0.76s-0.07,0.56-0.15,0.89
		c-0.08,0.34-0.21,0.73-0.39,1.17c-0.19,0.44-0.42,0.96-0.73,1.55c-0.07,0.1-0.13,0.24-0.2,0.42c-0.07,0.18-0.11,0.36-0.11,0.54
		c0,0.41,0.11,0.73,0.32,0.97s0.52,0.36,0.93,0.36c0.56,0,1.05-0.3,1.45-0.93c0.4-0.62,0.76-1.35,1.08-2.2
		c0.31-0.85,0.6-1.72,0.86-2.61c0.26-0.89,0.55-1.61,0.85-2.15c1.27,0.18,2.29,0.42,3.06,0.69c0.77,0.28,1.36,0.68,1.76,1.18
		c0.4,0.51,0.67,1.16,0.81,1.96c0.13,0.8,0.19,1.81,0.19,3.02v4.01c0,2.68,0.09,4.99,0.28,6.9c0.18,1.91,0.56,3.47,1.12,4.68
		c0.57,1.22,1.37,2.1,2.4,2.67c1.03,0.57,2.39,0.85,4.09,0.85c1.42,0,2.77-0.38,4.07-1.15c1.31-0.77,2.53-1.78,3.69-3.03
		c1.15-1.26,2.22-2.68,3.19-4.28c0.53-0.86,0.96-1.74,1.44-2.6c0.13,0.85,0.32,1.68,0.59,2.5c0.52,1.65,1.38,3.11,2.55,4.38
		c1.17,1.27,2.7,2.29,4.58,3.04c1.88,0.76,4.17,1.14,6.88,1.14c1.88,0,3.64-0.36,5.3-1.1c1.66-0.74,3.19-1.72,4.6-2.94
		c1.4-1.22,2.68-2.61,3.85-4.17c1.16-1.56,2.2-3.16,3.13-4.81c0.47-0.84,0.82-1.67,1.22-2.5c0.09,4.98,0.92,8.82,2.56,11.41
		c1.73,2.74,4.3,4.11,7.72,4.11c1.24,0,2.41-0.28,3.55-0.86c1.13-0.58,2.21-1.36,3.23-2.33c1.02-0.99,1.98-2.12,2.9-3.4
		c0.91-1.28,1.76-2.63,2.55-4.02h0.21c0.79,0,1.57-0.19,2.32-0.58c0.76-0.38,1.48-0.89,2.17-1.51s1.33-1.34,1.92-2.16
		c0.6-0.81,1.14-1.65,1.63-2.51c0.48-0.87,0.9-1.73,1.26-2.57c0.18-0.44,0.29-0.81,0.44-1.22c0.01-0.02,0.01-0.02,0.02-0.04
		c0.02-0.06,0.04-0.12,0.06-0.18c0.1-0.29,0.24-0.62,0.32-0.89c0.04-0.09,0.05-0.17,0.05-0.24c0.14-0.43,0.3-0.86,0.43-1.31
		c0.26-0.89,0.55-1.61,0.85-2.15c1.27,0.18,2.29,0.42,3.06,0.69c0.77,0.28,1.36,0.68,1.76,1.18c0.4,0.51,0.67,1.16,0.81,1.96
		c0.13,0.8,0.19,1.81,0.19,3.02v4.01c0,2.68,0.09,4.99,0.28,6.9c0.18,1.91,0.56,3.47,1.12,4.68c0.57,1.22,1.37,2.1,2.4,2.67
		c1.03,0.57,2.39,0.85,4.09,0.85c1.42,0,2.77-0.38,4.07-1.15c1.31-0.77,2.53-1.78,3.69-3.03c1.15-1.26,2.22-2.68,3.19-4.28
		c0.69-1.12,1.28-2.26,1.88-3.4c0.1,0.93,0.1,1.87,0.31,2.78c0.4,1.71,1.1,3.23,2.12,4.58c1.02,1.35,2.41,2.43,4.17,3.26
		c1.76,0.83,3.99,1.24,6.7,1.24c1.36,0,2.6-0.17,3.73-0.52c1.13-0.34,2.16-0.79,3.08-1.36c0.92-0.57,1.74-1.22,2.45-1.97
		c0.72-0.75,1.36-1.53,1.91-2.33c0.56-0.81,1.03-1.62,1.43-2.44c0.39-0.82,0.72-1.58,0.99-2.29c1.4-0.12,2.64-0.46,3.73-1.03
		c1.09-0.57,2.07-1.33,2.94-2.27c0.87-0.95,1.65-2.1,2.34-3.46c0.68-1.36,1.32-2.88,1.9-4.58c0.05-0.1,0.07-0.19,0.07-0.27
		c0-0.08,0-0.15,0-0.21C399.77,157.14,399.66,156.89,399.45,156.71z M311.81,152.33c0.08-1.27,0.19-2.59,0.32-3.95
		c0.13-1.36,0.3-2.71,0.49-4.03c0.19-1.32,0.4-2.51,0.63-3.55c0.23-1.04,0.48-1.88,0.73-2.53c0.25-0.65,0.52-0.97,0.81-0.97
		c0.38,0,0.69,0.15,0.91,0.46c0.22,0.3,0.38,0.67,0.47,1.09c0.09,0.42,0.15,0.86,0.17,1.3c0.02,0.44,0.03,0.81,0.03,1.09
		c0,1.05-0.09,2.24-0.26,3.58c-0.17,1.34-0.44,2.67-0.82,4.02c-0.37,1.34-0.86,2.62-1.45,3.84c-0.6,1.21-1.31,2.22-2.14,3
		C311.69,154.72,311.73,153.61,311.81,152.33z M279.45,160.05c0.25-1.02,0.6-1.92,1.03-2.7c0.44-0.77,0.97-1.4,1.59-1.88
		c0.63-0.48,1.34-0.71,2.16-0.71c0.83,0,1.4,0.21,1.71,0.61c0.31,0.4,0.47,0.91,0.47,1.51c0,0.83-0.21,1.61-0.61,2.35
		c-0.4,0.73-0.95,1.39-1.63,1.95c-0.69,0.57-1.48,1.03-2.38,1.38c-0.9,0.36-1.84,0.58-2.81,0.65
		C279.04,162.13,279.19,161.07,279.45,160.05z M381.67,171.43c-0.88,0.69-2.08,1.03-3.62,1.03c-1.17,0-2.14-0.22-2.9-0.68
		c-0.75-0.46-1.36-1.06-1.82-1.82s-0.77-1.64-0.95-2.64c-0.19-1-0.28-2.04-0.28-3.11c0-1.36,0.19-2.67,0.55-3.95
		c0.36-1.29,0.87-2.43,1.51-3.43c0.65-1,1.41-1.81,2.29-2.42c0.88-0.62,1.84-0.93,2.87-0.93c0.81,0,1.47,0.11,1.98,0.34
		c0.52,0.24,0.95,0.52,1.29,0.84c-1.11,0.52-2,1.39-2.68,2.59c-0.67,1.2-1.01,2.63-1.01,4.29c0,1.03,0.13,1.95,0.38,2.75
		c0.25,0.79,0.6,1.49,1.03,2.09c0.44,0.6,0.95,1.09,1.55,1.49c0.6,0.39,1.24,0.7,1.92,0.93
		C383.25,169.87,382.55,170.75,381.67,171.43z"/>
</g>
<g>
	<path class="st1" d="M215.62,326.79h-2.6c-0.36,0-0.73-0.28-0.81-0.64l-0.2-2.38H210l-0.2,2.38c-0.11,0.36-0.45,0.64-0.84,0.64
		h-2.6c-0.39,0-0.7-0.34-0.61-0.76l3.1-18.62c0.06-0.42,0.48-0.76,0.87-0.76h1.26h0.03h1.26c0.42,0,0.81,0.34,0.9,0.76l3.1,18.62
		C216.32,326.46,216.04,326.79,215.62,326.79z M211.73,320.78l-0.73-7.89l-0.73,7.89H211.73z"/>
	<path class="st1" d="M237.6,326.07c0.11,0.39-0.11,0.73-0.53,0.73h-2.49c-0.42,0-0.84-0.34-0.95-0.73c-1.87-6.8-1.87-6.8-2.07-7.52
		c-0.28,0.7-0.28,0.7-0.61,1.51v5.98c0,0.42-0.34,0.76-0.76,0.76h-2.46c-0.42,0-0.75-0.34-0.75-0.76v-18.62
		c0-0.42,0.33-0.76,0.75-0.76h2.35c0.42,0,0.75,0.34,0.75,0.76v6.4c0.25-0.7,0.25-0.7,2.21-6.43c0.14-0.39,0.59-0.73,1.01-0.73h2.46
		c0.42,0,0.64,0.31,0.48,0.7l-2.77,7.36L237.6,326.07z"/>
	<path class="st1" d="M254.54,326.04c0,0.42-0.33,0.76-0.75,0.76h-2.52c-0.42,0-0.76-0.34-0.76-0.76v-16.02h-1.9
		c-0.42,0-0.75-0.34-0.75-0.76v-1.85c0-0.42,0.33-0.76,0.75-0.76h7.83c0.42,0,0.76,0.34,0.76,0.76v1.85c0,0.42-0.34,0.76-0.76,0.76
		h-1.9V326.04z"/>
	<path class="st1" d="M271.2,326.79h-2.46c-0.42,0-0.75-0.34-0.75-0.76v-18.62c0-0.42,0.33-0.76,0.75-0.76h2.46
		c0.42,0,0.75,0.34,0.75,0.76v18.62C271.95,326.46,271.62,326.79,271.2,326.79z"/>
	<path class="st1" d="M290.24,323.3c0.42,0,0.76,0.34,0.76,0.76v1.98c0,0.42-0.34,0.76-0.76,0.76h-6.29c-0.42,0-0.75-0.34-0.75-0.76
		v-18.62c0-0.42,0.33-0.76,0.75-0.76h6.29c0.42,0,0.76,0.34,0.76,0.76v1.85c0,0.42-0.34,0.76-0.76,0.76h-2.94v5.42h1.98
		c0.42,0,0.76,0.34,0.76,0.76v1.4c0,0.42-0.34,0.75-0.76,0.75h-1.98v4.95H290.24z"/>
	<path class="st1" d="M311.21,319.75v2.21c0,1.37-0.5,2.63-1.4,3.52c-0.87,0.84-2.21,1.31-3.44,1.31h-3.94
		c-0.42,0-0.75-0.34-0.75-0.76v-18.62c0-0.42,0.33-0.76,0.75-0.76h3.72c1.23,0,2.57,0.48,3.44,1.34c0.9,0.89,1.4,2.15,1.4,3.5v1.9
		c0,1.12-0.56,2.18-1.23,3.02C310.56,317.31,311.21,318.49,311.21,319.75z M305.67,315.13h0.53c0.53,0,0.78-0.34,0.78-0.84v-3.47
		c0-0.56-0.34-0.84-0.84-0.84h-0.48V315.13z M307.21,318.85c0-0.56-0.39-0.87-0.81-0.87c-0.08,0-0.73,0-0.73,0v5.51h0.7
		c0.64,0,0.84-0.28,0.84-0.87V318.85z"/>
	<path class="st1" d="M331.09,310.77v12.05c0,1.37-0.5,2.38-1.43,3.27c-0.87,0.87-2.07,1.09-3.3,1.09c-1.23,0-2.43-0.22-3.3-1.09
		c-0.89-0.89-1.4-1.9-1.4-3.27v-12.05c0-1.34,0.5-2.38,1.4-3.27c0.87-0.84,2.07-1.09,3.3-1.09c1.23,0,2.43,0.25,3.3,1.09
		C330.58,308.39,331.09,309.43,331.09,310.77z M327.11,310.55c0-0.56-0.53-0.62-0.76-0.62c-0.2,0-0.73,0.06-0.73,0.62v12.5
		c0,0.56,0.53,0.64,0.73,0.64c0.22,0,0.76-0.08,0.76-0.64V310.55z"/>
	<path class="st1" d="M348.89,323.19c0.42,0,0.76,0.34,0.76,0.76v2.1c0,0.42-0.34,0.76-0.76,0.76h-6.29c-0.42,0-0.75-0.34-0.75-0.76
		v-18.62c0-0.42,0.33-0.76,0.75-0.76h2.6c0.42,0,0.76,0.34,0.76,0.76v15.77H348.89z"/>
	<path class="st1" d="M369.81,326.79h-2.6c-0.36,0-0.73-0.28-0.81-0.64l-0.2-2.38h-2.01l-0.2,2.38c-0.11,0.36-0.45,0.64-0.84,0.64
		h-2.6c-0.39,0-0.7-0.34-0.61-0.76l3.1-18.62c0.06-0.42,0.48-0.76,0.87-0.76h1.26h0.03h1.26c0.42,0,0.81,0.34,0.9,0.76l3.1,18.62
		C370.51,326.46,370.23,326.79,369.81,326.79z M365.92,320.78l-0.73-7.89l-0.73,7.89H365.92z"/>
	<path class="st1" d="M389.74,310.8v3.36c0,0.42-0.33,0.75-0.75,0.75h-2.46c-0.42,0-0.75-0.33-0.75-0.75v-3.58
		c0-0.59-0.5-0.64-0.7-0.64c-0.2,0-0.7,0.06-0.7,0.64v12.44c0,0.59,0.56,0.64,0.76,0.64c0.2,0,0.64-0.06,0.75-0.64v-3.69
		c-0.47,0-0.81-0.33-0.81-0.75v-0.7c0-0.42,0.34-0.76,0.76-0.76h3.16c0.42,0,0.75,0.34,0.75,0.76v8.92h-1.12c0,0-0.14-0.98-0.2-0.92
		c-0.84,0.84-1.62,1.31-3.36,1.31c-1.23,0-2.41-0.25-3.24-1.09c-0.92-0.92-1.43-1.93-1.43-3.3v-12c0-1.37,0.5-2.4,1.43-3.3
		c0.84-0.84,2.01-1.09,3.24-1.09s2.41,0.25,3.24,1.09C389.24,308.39,389.74,309.43,389.74,310.8z"/>
</g>
<g>
	<rect x="205.32" y="339.18" class="st1" width="183.85" height="0.91"/>
	<rect x="210.97" y="341.9" class="st1" width="172.55" height="0.91"/>
	<rect x="216.63" y="344.62" class="st1" width="161.24" height="0.91"/>
</g>
<g>
	<polygon class="st1" points="68.28,292.91 68.28,292.91 68.28,292.91 	"/>
</g>
<g>
	<polygon class="st1" points="522.43,292.99 522.43,292.99 522.43,292.99 	"/>
</g>
<g>
	<rect x="52.18" y="202.37" class="st2" width="486.8" height="85.11"/>
</g>
<path class="st1" d="M100.03,244.82l-8.83-7.58c-1.99-2-3.58-2.5-3.58-5.33l0-7c0-1.5,1.08-1.83,1.84-1.83
	c0.58,0,1.74,0.33,1.74,1.91l0,7c0,1.25,1,2.25,2.25,2.25l7.16,0c1.25,0,2.25-1,2.25-2.25l0-6.41c0-3.83-1.33-7-4.24-9.83
	c-2.34-2.25-5.09-3.24-9.33-3.25c-4.33,0-7.08,1-9.41,3.24c-2.92,2.83-4.25,6-4.25,9.83c0,0,0,7.32,0,7.49
	c0,3.66,1.08,5.83,3.33,8.08l8.66,7.83c2.83,2.75,3.58,3,3.58,5.58l0,7.32c0,1.67-1.58,1.83-2,1.83c-0.5,0-2.09-0.17-2.09-1.84
	l0-7.91c0-1.25-1-2.25-2.25-2.25l-7,0c-1.25,0-2.25,1-2.25,2.25l0,7.33c0,3.83,1.33,6.91,4.25,9.75c2.33,2.33,5.08,3.33,9.33,3.33
	c4.41,0,7.49-1.08,9.74-3.33c2.92-2.83,4.25-5.92,4.25-9.74l0-7C103.18,249.74,102.69,247.49,100.03,244.82z M138.52,237.25
	l8.25-21.9c0.5-1.16-0.17-2.08-1.42-2.08l-7.32,0c-1.26,0-2.59,1-3,2.16c-5.84,17.08-5.84,17.08-6.58,19.15l0-19.07
	c0-1.25-1-2.25-2.25-2.25l-6.99,0c-1.25,0-2.25,1-2.25,2.25l-0.01,55.47c0,1.25,1,2.25,2.25,2.25l7.32,0c1.25,0,2.25-1,2.25-2.25
	l0-17.82c1.01-2.41,1.01-2.41,1.84-4.5c0.59,2.17,0.59,2.17,6.16,22.41c0.33,1.16,1.58,2.16,2.83,2.16l7.42,0
	c1.25,0,1.91-1,1.58-2.16L138.52,237.25z M182.02,248.42l10.83-32.98c0.34-1.16-0.33-2.16-1.58-2.16l-7.16,0
	c-1.25,0-2.51,1-2.83,2.16l-5.01,17.82l-4.99-17.82c-0.33-1.16-1.58-2.16-2.83-2.16l-7.16,0c-1.25,0-1.92,1-1.58,2.16l10.74,32.82
	l0,22.73c0,1.25,1,2.25,2.25,2.25l7.08,0c1.25,0,2.25-1,2.25-2.25L182.02,248.42z M218.85,262.5l0.01-46.97c0-1.25-1-2.25-2.25-2.25
	l-7.74,0c-1.25,0-2.25,1-2.25,2.25l-0.01,55.47c0,1.25,1,2.25,2.25,2.25l18.74,0c1.25,0,2.25-1,2.25-2.25l0-6.25
	c0-1.25-1-2.25-2.25-2.25L218.85,262.5z M258.1,223.29l5.66,0c1.25,0,2.25-1,2.25-2.25l0-5.5c0-1.25-1-2.25-2.25-2.25l-23.31,0
	c-1.25,0-2.25,1-2.25,2.25l0,5.5c0,1.25,1,2.25,2.25,2.25l5.66,0L246.1,271c0,1.25,1,2.25,2.25,2.25l7.49,0c1.25,0,2.25-1,2.25-2.25
	L258.1,223.29z M348.39,217.22c-2.58-2.5-6-3.91-9.74-3.92l-11.66,0c-1.25,0-2.25,1-2.25,2.25l-0.01,55.47c0,1.25,1,2.25,2.25,2.25
	l11.66,0c3.75,0,7.16-1.41,9.75-3.91c2.75-2.75,4.24-6.41,4.24-10.49l0.01-31.15C352.63,223.63,351.14,219.97,348.39,217.22z
	 M340.71,260.85c0,1.75-0.66,2.58-2.08,2.58l-2,0l0.01-40.3l2,0c1.25,0,2.08,0.83,2.08,2.58L340.71,260.85z M378.63,262.86l0-14.74
	l5.92,0c1.25,0,2.25-1,2.25-2.25l0-4.16c0-1.25-1-2.25-2.25-2.25l-5.92,0l0-16.15l8.75,0c1.25,0,2.25-1,2.25-2.25l0-5.5
	c0-1.25-1-2.25-2.25-2.25l-18.74,0c-1.25,0-2.25,1-2.25,2.25l-0.01,55.47c0,1.25,1,2.25,2.25,2.25l18.74,0c1.25,0,2.25-1,2.25-2.25
	l0-5.92c0-1.25-1-2.25-2.25-2.25L378.63,262.86z M424.71,237.31l8.25-21.9c0.5-1.16-0.17-2.08-1.42-2.08l-7.33,0
	c-1.25,0-2.58,1-2.99,2.16c-5.84,17.08-5.84,17.08-6.58,19.15l0-19.07c0-1.25-1-2.25-2.25-2.25l-6.99,0c-1.25,0-2.25,1-2.25,2.25
	l-0.01,55.47c0,1.25,1,2.25,2.25,2.25l7.32,0c1.25,0,2.25-1,2.25-2.25l0-17.82c1.01-2.41,1.01-2.41,1.84-4.5
	c0.59,2.17,0.59,2.17,6.16,22.41c0.33,1.16,1.58,2.16,2.83,2.16l7.42,0c1.25,0,1.91-1,1.58-2.16L424.71,237.31z M469.38,215.83
	c-2.58-2.5-6.16-3.24-9.83-3.25c-3.66,0-7.24,0.74-9.82,3.24c-2.67,2.66-4.17,5.75-4.17,9.74l-0.01,35.89c0,4.08,1.5,7.08,4.16,9.75
	c2.58,2.58,6.16,3.24,9.82,3.25c3.67,0,7.25-0.66,9.83-3.24c2.75-2.66,4.25-5.66,4.25-9.74l0.01-35.89
	C473.63,221.58,472.13,218.49,469.38,215.83z M461.79,262.13c0,1.67-1.58,1.92-2.25,1.92c-0.58,0-2.16-0.25-2.16-1.92l0.01-37.22
	c0-1.66,1.58-1.83,2.16-1.83c0.67,0,2.25,0.17,2.25,1.83L461.79,262.13z M515.2,270.13l0-15.23c0-3.66-1.08-7.33-4.16-9.75
	c2.25-2.58,4.16-6.07,4.16-9.74l0-7.66c0-4.08-1.49-7.74-4.16-10.41c-2.58-2.58-6.08-4-9.74-4l-11.66,0c-1.25,0-2.25,1-2.25,2.25
	l-0.01,55.47c0,1.25,1,2.25,2.25,2.25c3.49,0,5.57,0,7.32,0c1.25,0,2.25-1,2.25-2.25l0-1.92l0-19.4l2.09,0c1.5,0,2.08,0.83,2.08,2.5
	l0,18.07c0,1.67,0.42,3,1,3l8.99,0C516.69,273.3,515.19,271.71,515.2,270.13z M503.38,237.4c0,1.67-0.5,2.5-2.08,2.5l-2.09,0
	l0-16.73l2.09,0c1.58,0,2.08,0.91,2.08,2.58L503.38,237.4z M291.93,258.94c1.11-0.36,2.22-1.02,3.3-1.97l0.73-0.65l0.71,0.67
	c0.9,0.85,1.72,1.45,2.5,1.84l3.57,0.75c0.91-0.01,1.75-0.18,2.54-0.52c0.8-0.34,1.49-0.83,2.06-1.46c0.56-0.63,1.02-1.4,1.35-2.28
	c0.33-0.87,0.5-1.78,0.49-2.66l-0.06-1.95l-4.14,0.01c0.03,0.2,0.04,0.37,0.04,0.52l0,0.4c0,1.97-0.93,2.26-1.49,2.26
	c-0.9,0-1.46-0.78-1.61-1l-1.86-2.4l0.42-0.64c0.25-0.38,0.52-0.76,0.83-1.13c0.48-0.6,0.96-1.34,1.41-2.21
	c0.47-0.9,0.92-2.05,1.34-3.43c0.42-1.39,0.76-3.19,1.01-5.35l-5.1,0c-0.07,1.61-0.43,3.12-1.09,4.51
	c-0.39,0.82-0.81,1.59-1.23,2.29l-0.8,1.31l-4.66-5.88l0.82-0.67c1.33-1.08,2.44-2.26,3.13-3.33c0.76-1.18,1.14-2.5,1.14-3.95
	c0-1.06-0.22-2.03-0.64-2.9c-0.42-0.87-1.03-1.63-1.79-2.25c-0.77-0.63-1.7-1.12-2.76-1.47c-1.03-0.34-2.23-0.53-3.47-0.53
	c-1.25,0-2.45,0.19-3.47,0.54c-1.02,0.36-1.92,0.87-2.67,1.52c-0.75,0.66-1.34,1.45-1.77,2.34c-0.42,0.89-0.63,1.88-0.63,2.91
	c0,0.91,0.19,1.85,0.57,2.8c0.38,0.96,0.9,1.87,1.54,2.7l1.95,2.52l-0.98,0.63c-2.26,1.46-3.87,2.96-4.8,4.49
	c-1.02,1.67-1.53,3.39-1.53,5.12c0,1.27,0.27,2.47,0.8,3.58c0.53,1.11,1.28,2.08,2.22,2.89c0.95,0.82,2.06,1.47,3.32,1.94
	c1.24,0.47,2.64,0.71,4.15,0.71C289.02,259.61,290.57,259.38,291.93,258.94z M287.47,254.9c-1.27,0-2.36-0.4-3.23-1.19
	c-0.9-0.81-1.37-1.86-1.37-3.06c0-1.92,1.26-3.99,3.86-6.31l0.83-0.73l6.08,8.07l-0.66,0.62c-0.84,0.8-1.74,1.43-2.7,1.88
	C289.26,254.67,288.34,254.9,287.47,254.9z M289.07,237.99l-0.95-0.98c-1.61-1.66-2.58-2.67-2.58-4.21c0-0.94,0.31-1.72,0.93-2.31
	c1.21-1.17,3.36-1.13,4.49,0.02c0.58,0.58,0.88,1.35,0.88,2.27c0,1.55-0.81,3.18-2.41,4.84L289.07,237.99z"/>
<g>
	<path class="st0" d="M482.12,196.93l40.32,0.01v0l-0.7-0.14l-42.24-9.56C480.45,190.42,481.33,193.66,482.12,196.93z"/>
</g>
<g>
	<path class="st0" d="M480.83,292.99c-0.9,3.29-1.88,6.55-2.95,9.77l43.21-9.76L480.83,292.99z"/>
</g>
<g>
	<path class="st0" d="M111.7,187.02L69,196.71l-0.7,0.14v0l40.72,0.01C109.82,193.55,110.72,190.27,111.7,187.02z"/>
</g>
<g>
	<path class="st0" d="M110.35,292.92l-40.74-0.01l43.72,9.94C112.26,299.58,111.26,296.27,110.35,292.92z"/>
</g>
</svg>
